####
#
# OBJ File Generated by Meshlab
#
####
# Object coneGameJam.obj
#
# Vertices: 22
# Faces: 40
#
####
vn 2.658136 0.000000 -1.498366
v 2.000000 0.000000 0.000000
vn 2.528038 0.821409 -1.498365
v 1.902113 0.618034 0.000000
vn 2.150477 1.562413 -1.498365
v 1.618034 1.175570 0.000000
vn 1.562413 2.150477 -1.498365
v 1.175570 1.618034 0.000000
vn 0.821409 2.528038 -1.498365
v 0.618034 1.902113 0.000000
vn 0.000000 2.658136 -1.498366
v 0.000000 2.000000 0.000000
vn -0.821409 2.528038 -1.498365
v -0.618034 1.902113 0.000000
vn -1.562413 2.150477 -1.498365
v -1.175570 1.618034 0.000000
vn -2.150477 1.562413 -1.498365
v -1.618034 1.175570 0.000000
vn -2.528038 0.821409 -1.498365
v -1.902113 0.618034 0.000000
vn -2.658136 0.000000 -1.498366
v -2.000000 0.000000 0.000000
vn -2.528038 -0.821409 -1.498365
v -1.902113 -0.618034 0.000000
vn -2.150477 -1.562413 -1.498365
v -1.618034 -1.175570 0.000000
vn -1.562413 -2.150477 -1.498365
v -1.175570 -1.618034 0.000000
vn -0.821409 -2.528038 -1.498365
v -0.618034 -1.902113 0.000000
vn 0.000000 -2.658136 -1.498366
v -0.000000 -2.000000 0.000000
vn 0.821409 -2.528038 -1.498365
v 0.618034 -1.902113 0.000000
vn 1.562413 -2.150477 -1.498365
v 1.175570 -1.618034 0.000000
vn 2.150477 -1.562413 -1.498365
v 1.618034 -1.175570 0.000000
vn 2.528038 -0.821409 -1.498365
v 1.902113 -0.618034 0.000000
vn 0.000000 0.000000 1.240120
v 0.000000 0.000000 4.000000
vn 0.000000 0.000000 -6.283185
v 0.000000 0.000000 0.000000
# 22 vertices, 0 vertices normals

f 21//21 1//1 2//2
f 22//22 2//2 1//1
f 21//21 2//2 3//3
f 22//22 3//3 2//2
f 21//21 3//3 4//4
f 22//22 4//4 3//3
f 21//21 4//4 5//5
f 22//22 5//5 4//4
f 21//21 5//5 6//6
f 22//22 6//6 5//5
f 21//21 6//6 7//7
f 22//22 7//7 6//6
f 21//21 7//7 8//8
f 22//22 8//8 7//7
f 21//21 8//8 9//9
f 22//22 9//9 8//8
f 21//21 9//9 10//10
f 22//22 10//10 9//9
f 21//21 10//10 11//11
f 22//22 11//11 10//10
f 21//21 11//11 12//12
f 22//22 12//12 11//11
f 21//21 12//12 13//13
f 22//22 13//13 12//12
f 21//21 13//13 14//14
f 22//22 14//14 13//13
f 21//21 14//14 15//15
f 22//22 15//15 14//14
f 21//21 15//15 16//16
f 22//22 16//16 15//15
f 21//21 16//16 17//17
f 22//22 17//17 16//16
f 21//21 17//17 18//18
f 22//22 18//18 17//17
f 21//21 18//18 19//19
f 22//22 19//19 18//18
f 21//21 19//19 20//20
f 22//22 20//20 19//19
f 21//21 20//20 1//1
f 22//22 1//1 20//20
# 40 faces, 0 coords texture

# End of File
